<?xml version="1.0" encoding="utf-8"?>
<!-- Generator: Adobe Illustrator 22.0.0, SVG Export Plug-In . SVG Version: 6.00 Build 0)  -->
<svg version="1.1" id="Layer_1" xmlns="http://www.w3.org/2000/svg" xmlns:xlink="http://www.w3.org/1999/xlink" x="0px" y="0px"
	 viewBox="0 0 612 538.2" style="enable-background:new 0 0 612 538.2;" xml:space="preserve">
<style type="text/css">
	.st0{fill-rule:evenodd;clip-rule:evenodd;}
</style>
<g>
	<g>
		<path class="st0" d="M36.5,243c3.2,0.2,6.4,0.3,9.6,0.5C36.6,189,52.2,133.6,77,86c3.1-6,6.2-12,10.4-17.4c2-2.5,4.2-4.9,6.7-6.9
			c2-1.7,2.6-1.9,4.6-0.1c17.4,16.2,45.8,20,68.5,17.3c6.1-0.7,12.2-2,18.1-4c5.6-1.9,12.7-3.4,17.2-7.3c1.6-1.4,1.8-1.9,3.8-0.7
			c1.1,0.6,1.9,1.5,2.7,2.5c1.5,1.9,2.4,4.3,3.4,6.5c2.7,6,6.9,11,11.2,15.8c9.9,11.2,21.5,20,34.9,26.6
			c13.2,6.5,28.9,10.7,43.7,9.3c13.1-1.3,25.5-5.9,37.3-11.3c20.2-9.3,32.4-23.9,45.3-40.7c1.8-2.3,2-3.3,4.5-1.9
			c1.7,1,3.3,2.3,4.9,3.5c27.5,20.8,64.6,16.1,93.2,2.8c2.4-1.1,4.8-2.2,7.3-3.2c0.8-0.3,2.1-1.1,2.9-1.2c1.8-0.3,0.6-0.9,2.3,0.6
			c2.6,2.4,4.7,6.7,6.9,9.5c32.2,42,43.6,95.1,43.9,147.2c2.8,0.3,5.6,0.3,8.4-0.2c0.2-33.7-4.6-67.9-16-99.7
			c-17.2-48-52.8-93.7-103.8-107.7c-31.7-8.7-64.3-4-91.8,14.3c-12.9,8.6-24.2,19.4-33.5,31.7c-4.5,6-8,12-10.6,18.9
			c-1.3,3.5-2.6,7-4.2,10.4c-1.4,2.8-4.1,5.2-4.1,8.3c-4.8-6.2-6.6-14.7-9.1-22c-2.7-8-6.1-14.9-11-21.8
			c-27.4-39.4-81-65.1-128.4-48.7c-46,15.9-74.2,51.8-93,95.6c-8.9,20.8-15,42.9-17.8,65.3C35,183.2,31.1,242.7,36.5,243z
			 M128.6,100.7c-3.6,0.9-7.1,2.1-10.5,3.7c-1.2,0.5-3.8,1.3-4.6,2.4c-1.1,1.4,0.1,3.8,1,5.3c2.9,5,8.9,0.5,12.6-1.6
			c5.7-3.2,14.5-2,20.9-2.4c-0.7,3.8-2.6,6.2-1,10c0.5,1.2,1,2.3,1.9,3.4c1.4,1.6,1.8,1.7,3.9,1.6c4.1-0.2,11-2.2,11.2-6.9
			C164.7,97,141.4,97.3,128.6,100.7z M438.6,132.6c2.4-2.4,2.8-7.2,2.8-10.2c7.5,0.3,14.3,4.3,20.8,7.8c2.5,1.3,7.1,4.3,9.5,2.9
			c1.2-0.7,1.7-2.1,2.3-3.3c0.6-1.3,1-1.3,0.3-2.7c-1.3-2.4-5.7-4.9-8-6.4c-2.8-1.8-5.7-3.3-8.8-4.5c-6.9-2.6-16.7-5.1-24.3-2.6
			c-1.8,0.6-3.4,1.4-4.9,2.6c-5.4,4.4-6.2,14.2-0.2,17.7C431.4,136,436,135.4,438.6,132.6z M237.2,135.1
			c-2.8-14.5-25.5-17.3-37.2-17.2c-4.4,2.8-10.3,1.5-15,4c-2,1.1-3.3,1.6-2.7,4.2c0.4,1.6,1,3.2,2.3,3.8c2,0.8,6.3-0.8,8.4-1.2
			c3.1-0.6,6.2-1.2,9.4-1.4c6.8-0.4,12.1,2.8,18.6,3.7c-1.3,4.6-2.9,7.6-0.6,12.1c1.4,2.8,2.9,4.1,6.1,3.8
			C232.8,146.4,238.5,142,237.2,135.1z M371,128.5c1.6-0.1,3.1-0.2,4.7-0.3c2.7-0.2,4.5,0.4,6.9,1.3c4.5,1.7,9,4,13.8,4.8
			c2.8,0.5,8.1-0.2,7.2-3.8c-0.9-3.7-5-6.3-8.2-7.7c-8.3-3.7-19.6-4.9-29.3-3.6c-2.1,0.3-4.2,0.7-6.2,1.3c-4.7,1.3-9.1,4.2-11.1,8.6
			c-2,4.4-1,10.3,3.1,12.9c3.1,2,7.4,1.6,10.2-0.8c3.1-2.8,3.2-8,2.1-11.6C366.4,128.3,368.4,128.6,371,128.5
			C371,128.5,371,128.5,371,128.5z M145.5,163.2c-4.1,2.7,1.4,7.7,4.6,8.9c4,1.5,8.4,1.8,12.5,3.2c2.2,0.7,6.2,1.4,8.5,0
			c1.4-0.8,1.1-1.9,1.2-3.7c0.2-4.7,0.1-9.4-0.3-14c-0.3-4.1-1.5-8-2-12c-0.3-1.7-0.2-4.4-1.5-5.8c-1.2-1.2-5.1-0.7-6.6,0.8
			c-1.8,1.8-0.1,8.8,0.1,11.7c0.4,4.3,0.7,8.5,1.1,12.8c-3.7-0.2-6.7-1.1-10.1-2.4C150.8,161.8,147.7,161.8,145.5,163.2z
			 M420.3,150.3c-0.9-1.8-2.5-2.5-4.3-3.3c-0.6,0.4-1.2,0.5-1.8,0.8c-1.8,1-0.8,0-1.9,1.7c-0.8,1.3-1.3,3-1.9,4.4
			c-1.6,3.8-3,7.7-4.2,11.6c-1.1,3.7-2,7.4-2.2,11.3c-0.1,1.7-0.1,3.4,0.3,5c0.5,2.1,0.6,2.1,2.6,2.3c3.7,0.4,8.3,0.7,11.9-0.2
			c1.8-0.5,2.8-0.8,4.7-0.7c1.7,0.1,3.5,0.2,5.1-0.4c1.6-0.6,2.1-1.5,3-2.8c0.6-0.9,1.1-1.7,0.9-2.4c-0.1-0.5-1.5-2-1.9-2.5
			c-1.4-1.4-1.6-1.1-3.9-1.1c-1.3,0-2.7,0-4,0c-2.9,0-5.9,0-8.8,0c2.3-5.6,2.8-11.8,5.4-17.2C420.5,154.5,421.6,152.8,420.3,150.3z
			 M191.7,219.1c1.7-0.6,6.2-1.7,7.3-3.1c0.7-0.9,0.6-3,0.5-4.1c-0.4-0.8-0.7-1.6-1-2.4c0-1.5-0.6-2-2-1.4c-1-0.2-2.6,0.4-3.6,0.6
			c-2.6,0.6-5.1,1.4-7.6,2.2c-4.9,1.7-9.8,3.9-14.9,4.5c-29.5,3.2-52.3-19.9-62.5-44.9c-0.7-1.8-1.4-3.6-2.1-5.3
			c-1.1-3-2.9-2.6-5.9-3.2c-5.4,9,0.5,19.8,5.6,27.5c5.2,7.8,10.9,15.1,18.4,20.8c14.9,11.3,34.7,15.6,52.4,12.9
			C181.7,222.3,186.8,220.9,191.7,219.1z M448.7,223.5c8-4.4,15.3-10.3,20.9-17.6c3.1-4,5.6-9.1,7.6-13.8c0.9-2,0.8-3.7-0.1-5.9
			c-1.1-2.7-2.5-2.2-5.2-2.2c-7.3,9.5-11.1,20.6-21.1,27.9c-20.1,14.5-48.6,13.8-69.9,2.3c-1.9-1-3.2-2.5-4.9-3.8
			c-1.4-1.1-0.4-1.1-2.5-1.3c-0.8,0-1.9,0.3-2.6,0.6c-3.2,1.5-3.3,3.3-1.6,6c1.5,2.3,3.7,4.2,5.9,5.8c6.6,4.8,14.6,7.8,22.5,9.9
			C415.7,236,432.7,232.3,448.7,223.5z M594.8,268.3c-4.6-6.7-31.4-26.1-44.1-21.1c-2.6,1-4.6,3-5.7,6.4c-0.9,2.6-0.4,6.5-0.5,9.2
			c-0.3,6-0.4,12-0.4,18c-0.1,11.6,0.4,23.3-0.1,34.9c-0.6,14.6-0.7,29.7,18.8,25.8c13.7-2.7,27-10.7,33.5-23.3
			C604.2,302.8,604.9,283,594.8,268.3z M561,324c0-19.3,0-38.7,0-58C593.2,268,592.5,320.6,561,324z M363.6,321.9
			c1.7,3.8,3.1,7.8,6,10.8c2.9,3,7.8,4.5,11.2,2.3c2.6-1.7,3.7-5.1,3.4-8.1c-0.3-3.1-1.7-5.9-3.2-8.6c-3.2-5.7-7-11.1-11.3-16
			c-1-1.1-2-2.3-2.3-3.8c-0.3-1.7,0.5-3.4,1.3-4.9c3.1-5.7,7.5-10.9,8.6-17.3c1.5-9.3-4.9-18.7-13.4-22.9s-18.4-4.3-27.8-3
			c-2.5,0.4-5.2,0.9-7.1,2.6c-2.8,2.5-3.1,6.7-3.2,10.4c-0.6,22.4-0.2,44.8,1.1,67.1c0.1,1.8,0.2,3.6,1,5.2
			c4.5,9.9,16.1,1.5,15.8-6.6c-0.3-8-0.6-16-0.9-24.1c0-0.1,0-0.1,0-0.2C352.4,304.3,359.7,313.2,363.6,321.9z M355.6,285.1
			c-2.8,2.5-8.8,2.9-12.6,2.8c0-7,0-14,0-21c6.2-0.1,19.4,0.4,17.7,9.3C360,279.5,358,282.9,355.6,285.1z M139.9,267.8
			c6.3-0.5,10,7.4,11.7,12.1c1.1,3,1.3,5.9,4.6,6.6c3.3,0.7,6.7,0.4,9.2-2.1c2.4-2.4,2.6-4.6,2.2-7.9c-0.4-3-1.1-6-2.3-8.9
			c-5.7-13.5-18.1-17.6-29-15.1c-13.2,3-24,15.6-17.7,32.6c2.9,7.9,9.8,13.3,16.3,18.1c3.4,2.5,6.7,4.8,9.2,8.4
			c2.1,3.1,6.1,7.2,5.7,10.9c-2.4,24.4-18.8-11.2-27.5-3.7c-3.5,3-4.1,8.3-2.8,12.6c4.4,14.1,20.7,21.2,34,14.7
			c11.5-5.6,16.6-20.8,11.6-32.5c-6.3-14.8-25.6-21-31.2-35.6c-0.5-1.3,0.1-3.7,0.5-5C135.3,270.5,137.1,268,139.9,267.8z
			 M306,268.6c2.8,0.1,6.5,0.9,9.2,0.3c1.7-0.4,3.2-2.1,4.4-3.5c3.6-4.2,2.3-7.2-0.7-11.3c-2-2.7-4.3-2.2-7.5-2.4
			c-11.3-0.8-25.6-4.6-36.4,0.3c-7,3.1-5.3,9.7-5.4,16.1c-0.4,20.4-4,40.6-3.7,61.3c0,1.8,0,3.7,0.1,5.5c0,2.4,0.9,3,2.7,4.7
			c2.2,2.1,4.2,3.7,7.4,2.8c1.5-0.4,2.9-1.4,4.2-2.2c2.2-1.4,2.2-3,2.5-5.5c1.6-10.8,1.4-21.8,1.3-32.7c8.2,0.2,16.6,2.4,24.8,1.1
			c1.5-0.2,3.3-0.5,4.6-1.3c1.8-1,2.2-2.2,2.6-4.3c0.3-2-0.1-4.2-1.2-6c-5.3-8.4-21.4-6.7-29.8-6.4c0.3-5.7,0.7-11.3,1-17
			C292.7,268.2,299.3,268.4,306,268.6z M462.1,268.5c3.3,0.1,6.8,0.1,9.9-1.1c3.1-1.2,6-3.8,6.3-7.1c0.6-5.7-5.9-9.7-11.6-10
			c-7.3-0.5-15.3-0.3-22.6,0.3c-4.7,0.4-9.4,1-13.9,2.4c-2.2,0.7-3.9,1.1-4.6,3.3c-1,2.9-1.1,6.4-1.4,9.4
			c-1.7,13.7-1.8,27.6-2.2,41.4c-0.2,6.6-1,13.2-1.1,19.8c0,2.9,0.2,5.9,1.1,8.8c0.8,2.6,2.2,2.8,4.8,3.5c10.6,2.6,22.1,2.1,33,2
			c2.5,0,5.6,0.4,8.1-0.1c1.8-0.4,5.5-3.1,6.1-4.7c0.7-1.8,0-5-0.6-6.8c-0.8-2.6-1.4-3.6-4-4.3c-10-2.8-21.1-2.3-31.4-2.1
			c0.2-3,0.3-6,0.5-9c0.1-1.8-0.4-6.6,0.5-8.2c0.6-1.1,0.9-0.9,2.3-0.9c1,0,2.1-0.1,3.1-0.1c1.9,0,3.6,0.2,5.5,0.6
			c5.5,1.2,14,1.5,19.1-1.8c4.5-2.9,4.2-12-1.3-13.2c-9-2-18.5-2.6-27.7-2.5c0.1-3.2,1-5.8,1-9C440.9,264.3,449.7,268.3,462.1,268.5
			z M528,251c-2.8,2.4-6.1,3.2-7.3,7c-3.2,10.6-1.7,27.6-1.7,38.8c0,1.4,0.8,6.7-1,6.2c-0.7-0.2-2.5-5.6-2.9-6.4
			c-6.1-13-11.5-27.2-19.5-39.2c-1.1-1.7-2.2-1.9-4.2-2.3c-2.6-0.5-4.8-0.4-7.3,0.7c-4.1,1.9-3.7,8.5-3.9,12.5
			c-0.5,11,0.6,22.1-0.4,33.1c-0.2,2-0.5,3.8-1,5.7c-0.7,2.8-0.9,5.3-0.9,8.3c-0.1,6-0.1,12.3,2.6,17.8c1.1,2.3,1.6,2.8,4.2,2.8
			c1.5,0,3.1-0.1,4.5-0.6c2.1-0.8,3.9-2.2,4.8-4.3c2.1-4.8,0.5-10.9,0.3-16c-0.1-3,0.5-5.5,1.3-8.4c0.4-1.7,0.4-3.4,0.4-5.3
			c0-1-0.7-5.2,1-4.5c4.2,1.8,13.4,29.4,15.6,33.2c1.5,2.6,3,7,5.7,8c17.9,6.8,16.9-15.2,17.7-25.9c0.6-8,0.8-16,0.9-24.1
			c0.1-7.7,0.6-15.4,0.6-23.1c0-3.4-0.2-7-1.5-10.2C534.7,251.9,531.1,251.3,528,251z M234,266.9c1-1.5,0.8-3.1,0.2-4.7
			c-0.6-1.6-1.8-5.2-3.2-6.2c-1.8-1.3-6.9-1-9.1-1.2c-13.1-1.3-33.3-5.8-45.6,0c-2.1,1-4,2.5-4.3,4.6c-0.3,2,0.5,4.7,1.3,6.6
			c3.7,8.2,14.8-0.7,19.7,5c0.7,0.8-0.3,5.2-0.4,6.2c-0.2,2.2-0.4,4.5-0.7,6.7c-0.6,5.2-1.4,10.4-2.1,15.6
			c-1.4,10.5-2.9,21.2-2.7,31.9c0.1,4,0.3,8.2,1.7,12.1c0.9,2.6,1.7,2.9,4.6,3.4c2.7,0.4,5.1,0,7.3-1.7c4.1-3.1,3.7-9,3.6-13.6
			c0-6.1,1-11.7,2.1-17.7c0.8-4.2,5.6-42.6,3.6-42.8C216.1,271.3,230.1,273.1,234,266.9z M95.4,347.5c4-0.4,10-1.7,12.2-5.3
			c2-3.3,0.4-10.8-3.4-12c-2.9-1-7.4,0-10.5,0c-3,0-6.9,0.3-9.8-0.7c-2.3-0.8-1.9-1.1-1.9-3.7c0-2.1,0-4.2,0-6.3c0-4.2,0-8.4,0-12.6
			c4.6-0.4,9.3-0.8,13.9-1c2.5-0.1,3.6,0.2,5.4-1.4c1.2-0.9,2.3-2.2,3.2-3.5c2.3-3.3,1.3-5.8-0.8-8.8c-0.7-0.9-1.7-2.9-2.7-3.4
			c-1-0.5-3.5-0.2-4.7-0.2c-3.2-0.1-6.2,0.1-9.3,0.7c-1.4,0.3-2.8,0.7-4.3,0c-1.7-0.7-1.2,0.1-1.7-1.7c-0.2-0.6,0-1.9,0-2.5
			c-0.1-3.7-0.2-7.6,0.4-11.3c0.3-2,0.2-2.6,2.1-2.9c2.2-0.4,4.9,0.3,7.1,0.4c3.7,0.2,7.4,0.4,11.1,0.1c2.3-0.2,7.8-0.6,9.4-2.6
			c1.5-1.9,1.3-7.1,0-9c-0.6-0.9-1.4-1.4-2.4-2c-7.3-3.9-17.8-4.3-25.9-4.5c-9.6-0.2-16.8,1.7-18.7,12.5c-1.2,6.6,0.4,13,0.7,19.6
			c0.3,6.5,0.1,13.1-0.1,19.6c-0.4,12.1-1.7,25.6,2.3,37.3c1,2.8,1.8,2.8,4.7,3.4c2.2,0.4,4.5,0.8,6.7,1.1
			C84,347.6,89.8,348.1,95.4,347.5z M401.1,335.3c17.3-1.6,7.8-45.3,7.9-57.5c0.1-9.6,2.3-23.8-11-23.9c-8.6-0.1-6,17.8-6,22
			c0.2,8.2,0.5,16.3,0.7,24.5C393,307.7,387.3,336.6,401.1,335.3z M56.1,305.5c-1.2-2.8-4-5.8-3.7-8.6c0.3-2.8,2.7-6.6,4-9.1
			c1.7-3.3,1.8-5.6,1.2-9.4c-2.1-13-19.4-22-33.6-21.8c-9.8,0.1-18.1,4.6-18.9,15.2c-1.6,19.1-0.5,39-0.9,58.2c0,2.5-1.2,7.8-0.2,10
			c0.5,1.1,2.7,3.7,3.5,4.7c0,1.2,0.6,1.7,1.7,1.5c19.4-2.1,51.3,1.2,49.7-29.2C58.7,313.1,57.7,309.1,56.1,305.5z M22,286.2
			c0-3.7,0-7.5,0-11.2c5-0.7,10-0.8,14.6,1.5c2.3,1.1,4.7,1.9,4.1,4.6c-0.4,1.9-1.2,3.8-2.5,5.2c-2.9,3.3-7.5,4.3-11.6,4.6
			c-0.8,0.1-3.3,0.5-4,0.1C21.6,290.3,22,287.8,22,286.2z M42.7,317.1c-0.2,1-0.4,2-0.8,2.9c-3.1,9-12.2,11.6-20.9,11.9
			c0-8,0-16,0-24c5.1-0.2,11.4-2.2,16.2,0.4c2,1.1,3.7,3.1,4.8,5.1C42.8,315.1,43,315.2,42.7,317.1z M521,354
			c-2.9,0-4.8-0.7-6.5,1.7c-2.6,3.6-4,8.1-5.9,12.1c-8.3,17.8-23.7,34.9-37.4,48.7c-31.4,31.7-69.1,55.4-110.2,70.9
			c-7,2.6-14,5.7-21.4,7.1c-3.2,0.6-6.1,1.3-9.1,2.5c-0.9,0.3-3.5,1.8-4.5,0.9c-0.6-0.5-0.9-5.1-1-6c2.6,0,3-0.1,4.8-1.8
			c7.3-7.3,11-10.3,7.9-21.7c-0.3-1.1-1.1-2.3-1.2-3.4c-0.1-2.3-0.6-0.4,0.8-1.8c1.6-1.7,4.6-3,6.5-4.5c6.3-4.9,10.1-14,5-21.9
			c-0.6-0.9-1.5-1.5-2-2.3c-0.9-1.4-0.6-0.7-0.2-2.4c2.4-9.6,9.8-10.4,4.3-22.5c-8.1-17.8-36.9-11.9-51.9-10.6
			c-10.1,0.8-20.6,1.8-30.7-0.2c-2.4-0.5-4.8-1.2-7-2.2c-0.8-0.3-2-0.7-2.6-1.3c-1.1-1.1-1.1-3.3-0.8-5c1.1-6.3,9.3-10.6,15.1-12.3
			c12-3.5,24.9-4.2,37.3-4.4c11.7-0.1,24,0,35.5,2.7c7.9,1.8,17.6,8.7,25.8,6.5c3.4-0.9,6.5-2.4,9.5-4.2c11.4-6.8,20-17.4,30.6-25.3
			c1.6-1.2,2.2-1.4,2.2-3.6c-3,3-9.6-0.4-13.4,1.2c-1.5,0.6-2.9,2.1-4.2,3c-5,3.7-10,7.5-15,11.4c-3.1,2.4-6.5,6.2-9.9,7.9
			c-7.1,3.4-23.3-4.8-30.2-6.3c-13.6-3.2-27.7-4.5-41.7-3c-8.4,0.9-16.8,2.6-25,4.9c-3.7,1-7.4,2.2-11.1,3.6
			c-1.3,0.5-2.8,1.4-4.2,1.7c-0.4,0.1-1.2,0.8-1.5,0.7c-0.5-0.1-1.8-2.1-2.2-2.5c-5.7-5.6-13.3-8.7-20.2-12.4
			c-2.1-1.1-4.2-2.3-6.1-3.6c-1.3-0.9-3.1-3-4.5-3.5c-3.8-1.3-8.4,2-12,2c4.1,5.8,10.4,9.6,16.5,13c6.5,3.5,13.5,6.6,19.4,11.2
			c2.4,1.9,2.1,1.8,1.7,4.6c-0.4,2.7-0.8,5.3-1.1,8c-0.4,3.2-1.1,5.5,1.2,7.9c2.2,2.3,4.2,4.8,6.8,6.8c6.2,4.7,13.8,4.5,21.1,3.6
			c8.7-1.1,17.3-1.5,26.1-1.9c5.2-0.2,10.3-0.4,15.5-0.6c4.4-0.2,10.2-1.4,14.4-0.4c2.8,0.7,6.7,4,8.6,6.2c1.9,2.3,1.1,5.5,0,8.3
			c-1.2,2.9-2.7,2.8-5.7,3.3c-2,0.4-4,0.6-6,0.8c-4.2,0.4-8.4,0.4-12.6,0c-8.4-0.7-16.6-2.8-24.8-4.9c-2.1-0.5-4.5-1.6-6.7-1.6
			c-2,0-1.1,0.1-2.7,0.9c-0.4,0.2-2.5,1.4-2.6,1.8c-0.6,1.7,2.1,4.8,3.2,5.8c4.3,3.8,10.8,5,16.2,5.9c6.4,1.1,12.8,2.2,19.3,2.2
			c6.9,0,17.8-1.6,20.7,7c1.6,4.7-2.5,9.5-6.4,11.6c-9.3,4.9-22,3.2-31.7,0.9c-4.7-1.1-9.6-2.6-13.8-5c-2-1.1-3-2.5-5.3-2.4
			c-2.7,0.1-5.4,1.6-4.8,4.6c1.1,5.4,7.9,8.2,12.5,9.7c6.4,2,13,2.8,19.5,4.1c5.3,1.1,19.4-0.5,18.5,8c-0.7,6.3-6,9.1-11.6,10.8
			c-11.6,3.5-25.9-2.3-35.7-8.3c-2-1.2-3.8-3.1-5.8-4.2c-1.4-0.8-2-0.8-3.7,0.1c-0.7,0.4-1.8,1-2.3,1.6c-2.9,3.7,3.8,9.9,6.9,11.7
			c10.3,6.2,23.5,6.3,35,9c2.3,0.5,3,0.2,3.5,2.5c0.4,2,1.1,5.6,0.8,7.5c-0.4,2.6-4.3,6-6.9,6.8c-7.1,2.2-14.4-2.9-20.8-5.3
			c-9.1-3.4-18.4-6.3-27.5-9.6c-8.8-3.3-17.2-7.3-25.6-11.5c-55.6-27.7-100.8-59.7-138.8-109.2c-2.9-3.8-5.6-7.7-7.9-11.8
			c-0.3-0.5-1-2.3-1.4-2.6c-0.4-0.2-2.5,0-3.1,0c-2.6,0-5.2,0-7.9,0c2.8,5.5,5.8,10.9,9.1,16.2c28.4,44.9,73.1,78.8,119.1,104
			c25.1,13.7,51.4,24.4,78.4,33.7c12.1,4.2,25.9,11.8,36.6,0.8c1.8-1.9,3.4-4.1,4.3-6.6c0.6-1.7,0.4-1.6,2-2.4
			c1.5-0.7,3.5-0.8,5.1-1.2c7.3-1.8,14.6-3.9,21.7-6.3c25.6-8.6,49.8-21.4,72.3-36.3c33.7-22.2,70.6-50.6,88.7-87.8
			c2.8-5.8,5.3-12,9.3-17.2c0.8-1,3.1-2.9,2.4-4.3C525.5,353.4,522.4,354,521,354z"/>
	</g>
</g>
</svg>
